<svg xmlns="http://www.w3.org/2000/svg" viewBox="0 0 5291.15 2456.39"><defs><style>.cls-1{fill:none;stroke:#535965;stroke-width:3px;}.cls-1,.cls-3{stroke-miterlimit:10;}.cls-2{fill:#5ba4d7;}.cls-3{fill:#fdfefe;stroke:#72c59a;stroke-width:18.22px;}.cls-4{fill:#f3756f;}.cls-5{fill:#72c59a;}.cls-6{font-size:255.13px;fill:#fff;font-family:MyriadPro-Regular, Myriad Pro;}</style></defs><title>Asset 2</title><g id="Layer_2" data-name="Layer 2"><g id="Layer_3" data-name="Layer 3"><polyline class="cls-1" points="94.59 2294.66 1339.57 1690.48 1339.57 2361.8"/><polygon class="cls-1" points="1339.57 1690.48 991.71 1214.46 897.12 479.03 2038.35 732.34 1339.57 1690.48"/><polyline class="cls-1" points="2038.35 732.34 2720.41 543.15 3391.72 768.96 4081.34 1638.2 5196.56 2142.09"/><polyline class="cls-1" points="2462.49 94.59 2720.41 543.15 3226.94 189.19"/><polyline class="cls-1" points="2843.92 2236.69 4081.34 1638.2 2657.74 1418.87 1339.57 1690.48 2462.49 2200.07"/><line class="cls-1" x1="4081.34" y1="2294.66" x2="4081.34" y2="1638.2"/></g><g id="Layer_2-2" data-name="Layer 2"><circle class="cls-2" cx="1339.57" cy="1690.48" r="94.59"/><circle class="cls-2" cx="1339.57" cy="2361.79" r="94.59"/><circle class="cls-2" cx="94.59" cy="2294.66" r="94.59"/><circle class="cls-2" cx="991.71" cy="1214.46" r="94.59"/><circle class="cls-2" cx="897.12" cy="506.53" r="94.59"/><circle class="cls-2" cx="2038.34" cy="732.34" r="94.59"/><circle class="cls-2" cx="2462.49" cy="2200.07" r="94.59"/><circle class="cls-2" cx="2843.92" cy="2236.69" r="94.59"/><circle class="cls-2" cx="4081.34" cy="1638.2" r="94.59"/><circle class="cls-2" cx="4081.34" cy="2294.66" r="94.59"/><circle class="cls-2" cx="3391.72" cy="768.96" r="94.59"/><circle class="cls-2" cx="2720.41" cy="543.15" r="94.59"/><circle class="cls-2" cx="3226.94" cy="189.19" r="94.59"/><circle class="cls-2" cx="2462.49" cy="94.59" r="94.59"/><circle class="cls-2" cx="5196.56" cy="2142.09" r="94.59"/></g><g id="Layer_4" data-name="Layer 4"><circle class="cls-3" cx="2625.81" cy="1365.28" r="311.22"/><circle class="cls-4" cx="2625.81" cy="1365.28" r="183.24"/><rect class="cls-5" x="2788.79" y="1623.2" width="80.43" height="274.19" transform="translate(-491.88 1488.97) rotate(-27.22)"/><text class="cls-6" transform="translate(2591.75 1464.01)">!</text></g></g></svg>