<svg xmlns="http://www.w3.org/2000/svg" viewBox="0 0 447.55 461.93"><defs><style>.cls-1,.cls-6{fill:#68bbf4;}.cls-1{opacity:0.22;}.cls-2{fill:#5ca6d9;}.cls-2,.cls-3,.cls-4,.cls-5{fill-rule:evenodd;}.cls-3{fill:#de6760;stroke:#de6760;stroke-width:0.35px;}.cls-3,.cls-4,.cls-5,.cls-8{stroke-miterlimit:10;}.cls-4,.cls-5{fill:#3e636c;stroke:#6dcc9c;}.cls-4{stroke-width:0.31px;}.cls-5{stroke-width:0.26px;}.cls-7{fill:#6dcc9c;}.cls-8{fill:none;stroke:#68bbf4;stroke-width:5.5px;}</style></defs><title>Asset 1</title><g id="Layer_2" data-name="Layer 2"><g id="_1" data-name="1"><path class="cls-1" d="M227.8,46A182.17,182.17,0,1,0,410,228.17,182.17,182.17,0,0,0,227.8,46Zm0,286A103.82,103.82,0,1,1,331.62,228.17,103.82,103.82,0,0,1,227.8,332Z"/><path class="cls-1" d="M227.8,79A149.14,149.14,0,1,0,376.94,228.17,149.14,149.14,0,0,0,227.8,79Zm0,234.13a85,85,0,1,1,85-85A85,85,0,0,1,227.8,313.16Z"/><path class="cls-2" d="M425.92,329.74h-4.57v5h4.57v-5Zm-9.3-64.39a27,27,0,0,1,27,27v2.47a4.55,4.55,0,0,1,2.58,1.29h0a4.51,4.51,0,0,1,1.33,3.2v14.08A4.54,4.54,0,0,1,443,318h-4v2.7A12.33,12.33,0,0,1,427.43,333v2.51a.76.76,0,0,1-.76.76H420.6a.76.76,0,0,1-.76-.76V329a.76.76,0,0,1,.76-.75h6.07a.76.76,0,0,1,.76.75v2.47a10.82,10.82,0,0,0,10.07-10.8v-.54a.86.86,0,0,1-.42.12H431a.76.76,0,0,1-.76-.76v-26.2a.76.76,0,0,1,.76-.76h6.17v-.16a20.56,20.56,0,1,0-41.12,0v.16h6.18a.75.75,0,0,1,.75.76v26.2a.75.75,0,0,1-.75.76h-6.08a.76.76,0,0,1-.76-.76V318h-5.17a4.55,4.55,0,0,1-3.2-1.33h0a4.53,4.53,0,0,1-1.33-3.2V299.33a4.55,4.55,0,0,1,3.92-4.5v-2.47a27,27,0,0,1,27-27Zm18,9a25.5,25.5,0,0,0-43.53,18v2.43h3.43v-2.43a22.08,22.08,0,0,1,44.15,0v2.43h3.42v-2.43a25.41,25.41,0,0,0-7.47-18Zm8.36,22h-5.17v20.14H443a3.07,3.07,0,0,0,2.14-.89,3,3,0,0,0,.89-2.14V299.33a3,3,0,0,0-.89-2.14h0a3,3,0,0,0-2.14-.89ZM436.33,294h-4.57v24.68h4.57V294ZM395.4,296.3h-5.17a3.07,3.07,0,0,0-2.14.89,3,3,0,0,0-.89,2.14v14.08a3,3,0,0,0,.89,2.14h0a3,3,0,0,0,2.14.89h5.17V296.3Zm6.08-2.27h-4.56v24.68h4.56Z"/><path class="cls-3" d="M411.58,118.47,410,116.26l-7.47,5.16,9-3Zm31.86,20.36V127.21a3,3,0,0,0-.88-2.13h0a3,3,0,0,0-2.13-.88H390.87a3,3,0,0,0-3,3V167.6a3,3,0,0,0,.88,2.13h0a3,3,0,0,0,2.13.88h49.56a3,3,0,0,0,3-3v-9.94H421.28a2.63,2.63,0,0,1-1.86-.78h0a2.63,2.63,0,0,1-.78-1.86V141.47a2.62,2.62,0,0,1,.73-1.82s0,0,.05-.05a2.59,2.59,0,0,1,1.86-.77ZM445,157.66v9.94a4.54,4.54,0,0,1-4.52,4.53H390.87a4.52,4.52,0,0,1-3.18-1.32h0a4.51,4.51,0,0,1-1.33-3.2V127.21a4.54,4.54,0,0,1,4.52-4.53H391l18.65-12.89a2.63,2.63,0,0,1,3.67.67l4.2,6.07,14.89-4.87.1,0a2.66,2.66,0,0,1,3.25,1.65.49.49,0,0,1,0,.11l3,9.3h1.57a4.51,4.51,0,0,1,3.19,1.33h0a4.51,4.51,0,0,1,1.33,3.2v11.62h1.19a.74.74,0,0,1,.75.75V156.9a.75.75,0,0,1-.75.76Zm-51.29-35L410.53,111a1.11,1.11,0,0,1,1.57.28L416,117l-3,1-2.22-3.21a.74.74,0,0,0-1-.19l-11.71,8.09Zm9.89,0,29.38-9.6h0a1.18,1.18,0,0,1,.87.07,1.17,1.17,0,0,1,.56.65h0l2.9,8.88H434.4l-2-6.27a.75.75,0,0,0-1-.48l-20.66,6.75Zm12,0h6.47l7.86-2.57a.75.75,0,0,1,.47,1.43l-3.49,1.14h5.92l-1.67-5.09-15.56,5.09Zm29.8,17.65v15.82H421.28a1.13,1.13,0,0,1-1.13-1.13V141.47a1.11,1.11,0,0,1,.3-.77l0,0a1.13,1.13,0,0,1,.8-.34h24.11ZM429,144.51a3.73,3.73,0,0,1,2.64,6.37,3.73,3.73,0,0,1-6.37-2.64,3.72,3.72,0,0,1,3.73-3.73Zm-3.71,0a5.25,5.25,0,1,1-1.53,3.7A5.23,5.23,0,0,1,425.3,144.54Z"/><path class="cls-4" d="M230.79,410.09a.82.82,0,0,1,.82-.82.82.82,0,0,1,.81.82v4h5.31a.82.82,0,0,1,.82.81.82.82,0,0,1-.82.82h-5.31v8.79h4.12a3.34,3.34,0,0,1,2.36,1h0a3.34,3.34,0,0,1,1,2.36v5.36a3.36,3.36,0,0,1-1,2.36h0a3.3,3.3,0,0,1-2.36,1h-4.12v4a.82.82,0,0,1-.81.82.82.82,0,0,1-.82-.82v-4h-6.65a.82.82,0,0,1-.82-.81.82.82,0,0,1,.82-.82h6.65v-8.79h-4.12a3.3,3.3,0,0,1-2.36-1h0a3.35,3.35,0,0,1-1-2.37v-5.36a3.34,3.34,0,0,1,1-2.36h0a3.3,3.3,0,0,1,2.36-1h4.12v-4Zm-3.61,46.3a.81.81,0,0,1,0-1.62h8.87a.82.82,0,0,1,0,1.63ZM215,392.15a4.9,4.9,0,0,0-4.89,4.89v59.84a4.9,4.9,0,0,0,1.43,3.45h0a4.87,4.87,0,0,0,3.45,1.44h33.13a4.92,4.92,0,0,0,4.89-4.9V397a4.85,4.85,0,0,0-1.44-3.45h0a4.88,4.88,0,0,0-3.45-1.43Zm33.13,1.63H215a3.28,3.28,0,0,0-3.26,3.26v59.84a3.27,3.27,0,0,0,1,2.31h0a3.24,3.24,0,0,0,2.3,1h33.13a3.28,3.28,0,0,0,3.26-3.27V397a3.28,3.28,0,0,0-1-2.3h0a3.28,3.28,0,0,0-2.3-1Zm-33.06,5a.82.82,0,0,0-.81.82v51.48a.81.81,0,0,0,.81.81h33a.81.81,0,0,0,.81-.81V399.6a.82.82,0,0,0-.81-.82Zm32.17,1.63H215.93v49.85h31.35V400.41Zm-14.86,25.74v8.79h4.12a1.71,1.71,0,0,0,1.21-.5h0a1.75,1.75,0,0,0,.5-1.21v-5.36a1.75,1.75,0,0,0-.5-1.21h0a1.71,1.71,0,0,0-1.21-.5Zm-1.63-1.63v-8.79h-4.12a1.71,1.71,0,0,0-1.21.5h0a1.75,1.75,0,0,0-.5,1.21v5.36a1.79,1.79,0,0,0,.5,1.22h0a1.71,1.71,0,0,0,1.21.5Z"/><path class="cls-3" d="M68.9,293.84H16.54a2.89,2.89,0,0,0-2.87,2.88v30.11a2.87,2.87,0,0,0,.84,2h0a2.86,2.86,0,0,0,2,.84H68.9a2.87,2.87,0,0,0,2.87-2.88V296.72a2.86,2.86,0,0,0-.84-2h0a2.87,2.87,0,0,0-2-.85ZM4.22,291.75l56.12-15-1.88-7-56.12,15,1.88,7Zm56.49-13.64,3.84,14.3h-48a4.32,4.32,0,0,0-4.31,4.31V313.6a2.88,2.88,0,0,1-2.73-2.13L4.59,293.14l56.12-15ZM2,283.35l-.26-1A2.85,2.85,0,0,1,2,280.23l0,0a2.84,2.84,0,0,1,1.75-1.34l50.57-13.55a2.82,2.82,0,0,1,2.14.26l0,0a2.92,2.92,0,0,1,1.34,1.75l.26,1L2,283.35Zm64.34,16.78v4.68H55.51v-4.68ZM54.79,298.7H67a.72.72,0,0,1,.72.72v6.11a.72.72,0,0,1-.72.72H54.79a.72.72,0,0,1-.72-.72v-6.11a.72.72,0,0,1,.72-.72Zm-27,7.48V312H20.29v-5.86Zm-8.17-1.43h8.89a.72.72,0,0,1,.72.71v7.3a.73.73,0,0,1-.72.72H19.57a.73.73,0,0,1-.72-.72v-7.3a.72.72,0,0,1,.72-.71Zm37.21,18.12a.72.72,0,0,1,0-1.44H67a.72.72,0,0,1,0,1.44Zm-12.41,0a.72.72,0,0,1,0-1.44H54.63a.72.72,0,0,1,0,1.44Zm-12.4,0a.72.72,0,0,1,0-1.44H42.22a.72.72,0,0,1,0,1.44Zm-12.4,0a.72.72,0,0,1,0-1.44H29.82a.72.72,0,0,1,0,1.44ZM12.23,315a4.28,4.28,0,0,1-2.24-.66,4.34,4.34,0,0,1-1.88-2.53L.32,282.75a4.26,4.26,0,0,1,.41-3.22l0,0a4.29,4.29,0,0,1,2.62-2l50.56-13.55a4.33,4.33,0,0,1,3.23.41l0,0a4.25,4.25,0,0,1,2,2.62l.45,1.65v0h0L61.91,277v0L66,292.41H68.9a4.29,4.29,0,0,1,3,1.26h0a4.29,4.29,0,0,1,1.27,3v30.11a4.34,4.34,0,0,1-4.31,4.32H16.54a4.27,4.27,0,0,1-3-1.26h0a4.31,4.31,0,0,1-1.27-3.05Z"/><path class="cls-2" d="M21.58,147.42a4.4,4.4,0,0,1,3.11,7.51l-.05,0a4.4,4.4,0,1,1-3.06-7.56Zm13.3-27.77v-.13a.76.76,0,0,0-.76-.76h-25a4.61,4.61,0,0,0-4.58,4.57v32a4.59,4.59,0,0,0,4.58,4.56h25a.75.75,0,0,0,.76-.75v-.7H52.05A16.87,16.87,0,0,0,68.88,141.6v-15a4.53,4.53,0,0,0-1.34-3.22h0A4.56,4.56,0,0,0,64.3,122H51.76l2.39-17.23a4.65,4.65,0,0,0-.14-1.94,4.57,4.57,0,0,0-.95-1.7A4.51,4.51,0,0,0,51.51,100h0a4.61,4.61,0,0,0-1.89-.4H48.09a4.47,4.47,0,0,0-2.37.66A4.62,4.62,0,0,0,44,102l-9.15,17.62Zm10.51-16.92a3,3,0,0,1,2.7-1.64h1.53a3.1,3.1,0,0,1,1.27.26h0a3.09,3.09,0,0,1,1,.79,3,3,0,0,1,.63,1.12,3.13,3.13,0,0,1,.09,1.3l-2.5,18.1a.76.76,0,0,0,.65.86H64.3a3.05,3.05,0,0,1,2.16.89h0a3.05,3.05,0,0,1,.89,2.16v15a15.35,15.35,0,0,1-15.3,15.31H34.88V123l10.51-20.22Zm-12,17.54H9.08a3.06,3.06,0,0,0-3,3.06v32a3.06,3.06,0,0,0,3.05,3.06H33.35V120.27Zm-9.74,29.51a2.86,2.86,0,0,0-2-.84,2.91,2.91,0,0,0-2,.84,2.89,2.89,0,0,0,0,4.07,2.91,2.91,0,0,0,2,.84,2.86,2.86,0,0,0,2-.8l0,0a2.86,2.86,0,0,0,0-4.07Z"/><path class="cls-5" d="M220.07,37.17,209.94,50a.68.68,0,0,0,.11,1h0l7.73,6.19A7.59,7.59,0,0,0,228.38,56a153.89,153.89,0,0,0,14-20.27,153.27,153.27,0,0,0,10.55-22.25,7.59,7.59,0,0,0-4.33-9.74L239.36.18a.68.68,0,0,0-.88.39h0l-6.06,15.2a.69.69,0,0,0,.38.89h0l5.16,2c-1.74,3.76-3.69,7.52-5.81,11.18l0,0c-2.11,3.65-4.38,7.2-6.76,10.59L221.06,37a.69.69,0,0,0-1,.11l0,0Zm-8.64,13.14,9.31-11.8L225.09,42h0l0,0a.69.69,0,0,0,.95-.16c2.56-3.59,5-7.39,7.25-11.29l0,0c2.25-3.91,4.33-7.93,6.17-11.95v-.05a.67.67,0,0,0-.38-.87l-5.2-2,5.56-14L248.09,5a6.23,6.23,0,0,1,3.56,8,150.61,150.61,0,0,1-10.46,22,150.87,150.87,0,0,1-13.87,20.08,6.23,6.23,0,0,1-8.69.92l-7.2-5.77ZM239.51,18.6h0Z"/><path class="cls-6" d="M286.37,131.91a2.72,2.72,0,1,1,5.32-1.14l4.67,21.54a2.72,2.72,0,0,1-2.08,3.24,2.69,2.69,0,0,1-.69.06c-3.48.11-6.93.28-10.34.48s-6.76.44-9.83.73a2.72,2.72,0,0,1-.49-5.41c3.29-.29,6.63-.55,10-.75,2.37-.14,4.84-.26,7.43-.36Z"/><circle class="cls-7" cx="227.8" cy="201.4" r="22.45"/><path class="cls-7" d="M194.12,277.39h67.36c0-15.52-7.42-37.21-22.25-42.57H216.37C201.54,240.18,194.13,261.87,194.12,277.39Z"/><path class="cls-8" d="M290.29,150.07A100,100,0,1,0,326.55,244"/><path class="cls-8" d="M226.17,128.2a100,100,0,1,0,87.65,49.56"/></g></g></svg>