<svg class="" width="48" height="48" viewBox="0 0 60 60" fill="none" xmlns="http://www.w3.org/2000/svg">
    <path id="flyte-logo"
        d="M12.8998 24.7411C12.8998 24.7411 0 13.5841 0 2.43095C0 2.43095 1.89543 0.514667 9.46552 0.050113L9.38025 2.43095C9.37637 13.5841 12.8998 24.7411 12.8998 24.7411ZM25.7957 2.43095C25.7957 2.43095 23.8964 0.510795 16.3302 0.050113L16.4154 2.43095C16.4154 13.588 12.892 24.745 12.892 24.745C12.892 24.745 25.7957 13.5841 25.7957 2.43095ZM21.1404 38.9449L19.0318 40.0598C23.218 46.3777 25.8267 47.0552 25.8267 47.0552C35.5015 41.4767 38.7265 24.7411 38.7265 24.7411C38.7265 24.7411 30.8153 33.3663 21.1404 38.9449ZM12.9308 24.7411C12.9308 24.7411 12.8688 24.9734 12.8688 25.4728C12.8688 26.6574 13.2215 29.3557 15.6014 34.1174L17.6209 32.8515C27.2957 27.273 38.7303 24.7411 38.7303 24.7411C38.7303 24.7411 31.5634 22.2635 23.9196 22.2635C20.0978 22.2635 16.1557 22.8829 12.9308 24.7411ZM46.8741 10.5877L48.8936 11.8536C51.2735 7.09197 51.6262 4.39369 51.6262 3.20908C51.6262 2.70968 51.5642 2.47741 51.5642 2.47741C48.3393 0.619191 44.3972 -0.000213623 40.5754 -0.000213623C32.9316 -0.000213623 25.7647 2.47741 25.7647 2.47741C25.7647 2.47741 37.1993 5.00922 46.8741 10.5877ZM38.6644 24.7915C38.9009 24.7295 41.4746 23.812 45.4593 17.7961L43.3507 16.6811C33.6797 11.1026 25.7647 2.47741 25.7647 2.47741C25.7647 2.47741 28.9896 19.2129 38.6644 24.7915Z"
        fill="white"></path>
</svg>