<?xml version="1.0"?>
<svg width="512" height="512" xmlns="http://www.w3.org/2000/svg" xmlns:svg="http://www.w3.org/2000/svg" preserveAspectRatio="xMidYMid meet">
 <metadata>Created by potrace 1.13, written by Peter Selinger 2001-2015</metadata>
 <g transform="translate(0,100)">
    <defs>
    <filter id="linear">
      <feColorMatrix
        type="matrix"
        values="1.00 0 0 0 0 
           0.80 0 0 0 0 
           0.65 0 0 0 0 
           0    0 0 1 0" />
    </filter>
  </defs>

  <title>Layer 1</title>
  <path fill="black" id="svg_2" d="m132.000002,142.199998c-3.6,1.1 -8.3,2.5 -10.5,3.2c-2.2,0.6 -5.6,2.1 -7.6,3.2c-2,1.2 -4.7,2.5 -6,2.9c-4.5,1.4 -8.6,4.4 -10.4,7.8c-1.6,3.1 -1.7,3.7 -0.2,9.8c0.9,3.5 2.3,12.9 3.2,20.9c0.8,8 2.3,17.5 3.2,21.3c1.3,5.2 1.4,7 0.5,7.9c-0.7,0.7 -1.2,1.8 -1.2,2.6c0,0.8 -1.7,3.5 -3.8,6.1c-4.4,5.3 -5.9,8.7 -5.4,11.8c0.3,2.3 2.2,3.3 2.2,1.1c0,-0.6 0.3,-0.9 0.6,-0.6c0.3,0.3 0.1,3.2 -0.5,6.5c-4.1,23.9 -6.5,50.200001 -5.5,61.300001c0.4,3.9 1,7.2 1.3,7.5c0.4,0.2 0.7,-6 0.8,-13.8c0.1,-21 7.3,-65.900001 11.2,-70.000001c0.8,-0.8 2.5,3.6 10.6,27.3c6.3,18.5 19.2,44.600001 21.1,42.700001c0.2,-0.2 -1.6,-3.9 -4,-8.1c-3.5,-6.2 -15.3,-35.200001 -16.2,-40.100001c-0.4,-2 -5.6,-14 -6.6,-15.3c-0.6,-0.6 -0.8,-1.2 -0.4,-1.2c0.3,0 0.1,-1.2 -0.5,-2.8c-2.3,-5.5 -2.1,-24 0.2,-22.7c0.5,0.4 0.7,0 0.5,-0.7c-0.3,-0.7 -1.2,-3.7 -2.1,-6.5c-0.9,-2.9 -2,-10.8 -2.5,-17.5c-0.5,-6.8 -1.6,-14.7 -2.4,-17.7c-2.3,-7.8 -1.1,-9.6 9.4,-14.8c11.5,-5.8 18.8,-8.5 21.9,-8.1c2.1,0.3 1.4,0.7 -3.1,2.1c-3.2,1 -6.4,2.7 -7.2,3.9c-2.3,3.2 -0.9,4.1 2.5,1.5c2.8,-2 4.2,-2.2 14.4,-2.2c10.4,0.1 11.6,0.3 13.8,2.3c2.7,2.5 5.7,2.9 5.7,0.7c0,-2.4 -3.6,-5.3 -7.4,-6c-2.2,-0.5 -4.7,-2.1 -6.9,-4.6c-4,-4.4 -3.9,-4.4 -12.7,-1.7z"/>
  <path id="svg_3" d="m143.100002,160.399998c-4.5,0.7 -7.6,1.6 -7.9,2.4c-0.3,1.1 0.8,1.2 5.4,0.6c3.3,-0.4 9.8,-0.7 14.6,-0.8c7.8,-0.1 9,0.1 11,2.1c1.6,1.6 1.9,2.6 1.2,3.3c-1.2,1.2 -15,3.9 -20.1,4c-3,0 -5.2,1.5 -3.9,2.7c0.3,0.3 5.2,0.1 10.8,-0.6c6.1,-0.7 12.2,-0.8 14.8,-0.4c4.4,0.8 4.5,0.9 4.8,5.1c0.4,5.5 -2.6,11.9 -8.3,17.9c-4.6,4.8 -7,4.9 -7.3,0.5c-0.1,-2.1 0.6,-3.4 2.8,-5.1c4.1,-3 2.9,-4.4 -3.2,-3.9c-5.9,0.6 -7.7,2 -5.7,4.4c1,1.2 1.4,4.3 1.4,9.8c-0.1,9.8 -2.8,19.2 -9.1,31.8l-4.4,8.8l-8.3,-6.7c-11,-8.9 -15.7,-13.4 -15.7,-15c0,-0.8 -1.6,-3 -3.6,-5c-2.1,-2 -3.1,-2.7 -2.5,-1.5c0.6,1.1 1.6,2.4 2.1,2.7c0.6,0.3 1,2.2 1,4.1c0,2.4 0.9,4.4 3.3,7.1c1.9,2.1 5.5,6.9 8.2,10.8c2.7,3.8 5.3,7.4 5.9,8c0.6,0.5 1.9,2.3 2.9,3.8c1,1.6 2.1,2.7 2.3,2.4c0.5,-0.4 -4.2,-9.6 -5.7,-11.2c-0.5,-0.5 -0.9,-1.3 -0.9,-1.7c0,-1.6 3,0.8 5.3,4.1c1.9,2.7 3,3.4 5.9,3.5c2.3,0.1 3.4,-0.3 3.1,-1.1c-0.2,-0.6 0.7,-2.9 2.2,-5.1c3.2,-4.8 9.3,-21.5 11,-30.1c1.3,-6.7 3.2,-9.1 6.9,-9.1c3.6,0 8.4,-3.7 10.7,-8.2c2.9,-5.6 3.9,-19 1.7,-21.6c-0.9,-0.9 -2.5,-3.9 -3.6,-6.5c-3.4,-7.7 -10.1,-9.1 -29.1,-6.3z"/>
  <path fill="black" id="svg_4" d="m37.000001,222.999999c0,1.1 0.7,1.4 5.3,2.5c4.4,0.9 11.7,8.3 14.8,15c4.9,10.1 4.6,10.2 -10.5,2.9c-8.6,-4.2 -11.5,-4.9 -8.5,-1.9c0.8,0.7 6.4,3.8 12.5,6.9c11.5,5.6 17,10 18,14.3c0.9,3.3 -2,9.3 -4.3,9.3c-3.9,0 -12.5,5.2 -21.9,13c-5.4,4.6 -10.5,9 -11.1,9.8c-1.5,1.8 -1.7,6.1 -0.3,8.2c1.1,1.7 1.9,1.1 2.5,-1.9c0.6,-3.1 6.8,-10.3 12.8,-15c5,-3.8 10.7,-6.7 10.7,-5.5c0,0.4 -2.5,4.5 -5.5,9.3c-5.8,9.2 -8.9,16.6 -8.3,20.3c0.5,3.7 1.8,2.7 3.7,-2.9c2.9,-8.7 11.1,-21.1 20.4,-31c11.5,-12.4 19.7,-23.3 19.7,-26.4c0,-1.4 0.5,-3 1.2,-3.7c0.7,-0.7 0.9,-1.2 0.6,-1.2c-0.4,0 -3.5,3.6 -6.9,8c-3.4,4.4 -6.9,8 -7.8,8c-1.8,-0.1 -4.6,-4.4 -11.2,-16.9c-7,-13.4 -13.6,-19.6 -22.6,-21.6c-2.2,-0.4 -3.3,-0.3 -3.3,0.5z"/>
  <path fill="black" id="svg_5" d="m146.700002,251.3c0.5,0.9 0.1,1.5 -1.3,1.9c-2.9,0.7 -2.6,1.4 1.9,4.5c5.1,3.6 7.4,7.1 6.6,10.3c-0.4,1.4 -1.3,2.5 -2,2.5c-1.7,0 -10.2,-9.4 -11.9,-13.3c-0.8,-1.9 -1.9,-2.7 -3.7,-2.7c-1.4,0 -2,0.4 -1.4,0.8c0.6,0.4 2.3,2.6 3.7,4.9c1.5,2.3 4.6,6.4 7.1,9.2c5.4,6.1 6.1,8.1 4.5,12.9c-1.8,5.7 -9.6,20.8 -14.7,28.6c-5.3,8.2 -20.6,23.8 -30.7,31.3c-19.5,14.7 -33.3,17.3 -48.900001,9.3c-7.9,-4 -10.2,-3.9 -5.4,0.4c4.4,3.8 8.7,5.3 20.2,6.8c9.8,1.2 14.2,0.2 26.5,-6.4c22.9,-12.1 44.500001,-37.200001 55.200001,-64.100001c1.8,-4.5 3.6,-8.7 4,-9.3c0.5,-0.5 0.9,-4.9 1.1,-9.6c0.3,-7.4 0,-8.9 -1.7,-10.8c-2.7,-3 -10.1,-8.9 -9.1,-7.2z"/>
  <g id="svg_6" fill="#000000" transform="translate(0,512) scale(0.10000000149011612,-0.10000000149011612) ">
   <path fill="#black" stroke="null" id="svg_7" d="m3238.597305,5074.408265c-322.740492,-22.175667 -632.516779,-92.279388 -850.178971,-192.427561c-225.167785,-103.724893 -371.185682,-245.363024 -423.724832,-411.322854l-15.693512,-50.074087l0,-1169.587592l0,-1169.587592l15.693512,-50.074087c34.798658,-110.878334 120.089486,-219.610637 235.402685,-302.590551c209.474273,-150.937604 542.449665,-253.231809 963.445191,-296.152455c136.465324,-13.591538 512.427293,-11.445505 655.033557,4.292065c648.210291,70.819065 1064.429531,283.276261 1164.049218,594.450941l16.375839,50.074087l0,1169.587592l0,1169.587592l-19.105145,57.942872c-96.208054,294.006422 -490.592841,502.886897 -1089.675616,577.998027c-193.098434,24.321699 -454.42953,31.47514 -651.621924,17.883602zm576.565996,-238.924927c491.275168,-55.081495 852.225951,-208.880475 945.704698,-402.02338c16.375839,-35.051861 19.787472,-50.074087 19.787472,-95.140764c0,-45.066678 -3.411633,-60.088904 -19.787472,-95.140764c-93.478747,-193.858249 -455.111857,-346.226541 -952.527965,-402.738724c-158.299776,-18.598946 -510.380313,-18.598946 -668.68009,0c-210.1566,23.606355 -369.138703,57.227527 -528.803132,112.309023c-270.883669,92.994732 -431.230425,224.618045 -444.876958,365.540832c-25.928412,262.531282 445.559284,485.718639 1120.380314,530.785317c90.067114,5.722753 434.642058,-2.861376 528.803132,-13.591538zm-1491.565996,-1006.489139c216.297539,-113.739711 480.357942,-183.128088 843.355705,-221.756669c113.266219,-12.16085 501.510067,-12.16085 617.505593,0c416.901566,43.63599 745.782998,143.784163 953.892618,289.714358l46.39821,32.905828l-2.04698,-223.187357l-2.04698,-223.187357l-19.787472,-42.920646c-90.067114,-193.142905 -449.653244,-344.795853 -952.527965,-402.02338c-158.299776,-17.883602 -510.380313,-17.883602 -668.68009,0c-502.874721,57.227527 -862.460851,208.880475 -952.527965,402.02338l-19.787472,42.920646l-2.04698,223.187357l-2.04698,223.187357l46.39821,-32.905828c25.246085,-17.883602 77.102908,-48.643398 113.948546,-67.957689zm-56.63311,-638.802275c418.948546,-298.298487 1405.592842,-373.409617 2081.096198,-158.091045c175.357942,55.796839 312.505593,130.907969 424.407159,231.771486c11.599553,10.730161 12.281879,2.146032 10.234899,-227.479422l-2.04698,-239.640271l-19.787472,-42.920646c-90.067114,-193.142905 -449.653244,-344.795853 -952.527965,-402.02338c-158.299776,-17.883602 -510.380313,-17.883602 -668.68009,0c-502.874721,57.227527 -862.460851,208.880475 -952.527965,402.02338l-19.787472,42.920646l-2.04698,238.924927l-2.04698,238.924927l29.340045,-25.752387c16.375839,-14.306882 49.809843,-40.774613 74.373602,-58.658216zm0,-686.730329c418.948546,-298.298487 1405.592842,-373.409617 2081.096198,-158.091045c175.357942,55.796839 312.505593,130.907969 424.407159,231.771486c11.599553,10.730161 12.281879,2.146032 10.234899,-227.479422l-2.04698,-239.640271l-19.787472,-41.489957c-93.478747,-193.858249 -455.111857,-346.226541 -952.527965,-402.738724c-158.299776,-18.598946 -510.380313,-18.598946 -668.68009,0c-210.1566,23.606355 -369.138703,57.227527 -528.803132,112.309023c-220.391499,75.826474 -369.138703,178.120679 -423.724832,290.429702l-19.787472,41.489957l-2.04698,238.924927l-2.04698,238.924927l29.340045,-25.752387c16.375839,-14.306882 49.809843,-40.774613 74.373602,-58.658216z"/>
   <path fill="#ff7f0e" stroke="null" id="svg_8" d="m4412.199095,3584.346519c-68.914989,-31.47514 -85.290828,-127.331249 -31.387025,-183.843432c76.420582,-80.833883 201.96868,-8.584129 182.181208,104.440238c-12.281879,67.242345 -89.384788,108.016958 -150.794184,79.403194z"/>
   <path fill="#ff7f0e" stroke="null" id="svg_9" d="m4412.199095,2897.61619c-68.914989,-31.47514 -85.290828,-127.331249 -31.387025,-183.843432c44.35123,-46.497366 107.12528,-46.497366 151.47651,0c84.608501,88.702668 -10.234899,233.917518 -120.089486,183.843432z"/>
   <path fill="#ff7f0e" stroke="null" id="svg_10" d="m4412.199095,2210.885861c-68.914989,-31.47514 -85.290828,-127.331249 -31.387025,-183.843432c44.35123,-46.497366 107.12528,-46.497366 151.47651,0c84.608501,88.702668 -10.234899,233.917518 -120.089486,183.843432z"/>
  </g>
 </g>
</svg>